<?xml version="1.0" standalone="no"?>
<!DOCTYPE svg PUBLIC "-//W3C//DTD SVG 20010904//EN"
 "http://www.w3.org/TR/2001/REC-SVG-20010904/DTD/svg10.dtd">
<svg version="1.0" xmlns="http://www.w3.org/2000/svg"
 width="260.000000pt" height="260.000000pt" viewBox="0 0 260.000000 260.000000"
 preserveAspectRatio="xMidYMid meet">
<metadata>
Created by potrace 1.11, written by Peter Selinger 2001-2013
</metadata>
<g transform="translate(0.000000,260.000000) scale(0.100000,-0.100000)"
fill="#000000" stroke="none">
<path d="M952 2201 c-7 -4 -24 -6 -37 -3 -19 3 -25 -1 -30 -20 -4 -17 -13 -24
-28 -24 -13 1 -23 -6 -25 -16 -3 -13 3 -18 22 -18 50 0 39 -31 -17 -44 -29 -7
-28 -4 -11 -81 5 -19 4 -19 -9 -2 -23 27 -37 20 -59 -30 -21 -48 -27 -155 -12
-225 3 -17 1 -28 -5 -28 -6 0 -11 10 -11 23 0 12 -5 29 -10 37 -9 13 -11 13
-20 0 -17 -26 -41 -151 -56 -285 -11 -100 -11 -149 -3 -211 9 -68 8 -87 -5
-119 -11 -25 -14 -50 -10 -72 6 -34 6 -35 -22 -31 -27 3 -29 0 -36 -42 -3 -25
-4 -75 -1 -112 6 -67 5 -68 -18 -68 -21 -1 -28 -11 -52 -83 -41 -117 -51 -167
-43 -211 7 -34 10 -37 32 -32 18 5 24 2 24 -11 0 -20 87 -106 103 -100 19 6
38 86 26 109 -8 15 1 43 42 135 41 95 49 120 40 135 -17 27 -13 53 9 73 11 10
20 24 20 31 0 7 -9 18 -20 24 -31 17 -26 55 10 70 33 14 34 17 50 143 6 48 13
94 16 102 6 15 42 19 81 9 27 -7 21 -24 -8 -24 -16 0 -18 -3 -9 -19 5 -11 10
-36 10 -56 0 -35 -2 -37 -26 -31 -45 12 -22 -16 32 -39 70 -29 77 -34 64 -50
-6 -8 -24 -17 -40 -20 -72 -16 -53 -55 30 -63 28 -2 50 -6 50 -9 0 -2 -7 -18
-16 -35 -16 -30 -15 -34 9 -82 14 -28 28 -68 31 -88 6 -31 4 -37 -14 -43 -11
-3 -20 -13 -20 -22 0 -11 5 -13 18 -8 9 4 36 13 58 20 40 13 43 12 67 -13 13
-15 28 -35 33 -44 8 -15 12 -16 34 -3 47 27 53 28 72 16 14 -9 19 -9 22 1 32
112 67 164 113 170 23 3 30 12 51 77 24 72 24 75 8 106 -17 32 -17 33 13 93
37 74 38 87 6 108 -33 22 -32 41 3 41 57 0 82 12 82 39 0 17 7 28 19 31 27 7
44 48 25 63 -22 19 -16 44 16 62 l29 16 12 -36 c6 -20 22 -53 34 -73 21 -32
24 -49 24 -134 0 -142 28 -270 69 -317 10 -12 13 -29 8 -61 -6 -36 -3 -46 14
-62 24 -22 25 -38 4 -70 -15 -23 -15 -27 0 -48 9 -12 26 -37 37 -55 14 -21 27
-31 38 -28 9 3 36 10 59 15 25 5 50 18 58 30 l14 20 47 -20 c26 -11 52 -18 60
-15 16 6 17 38 2 53 -6 6 -14 26 -18 45 -7 29 -5 37 10 47 26 16 24 36 -6 49
-28 13 -32 34 -10 52 24 20 18 59 -25 150 -38 81 -50 142 -31 154 4 3 11 36
14 73 4 57 2 73 -15 101 -13 22 -19 44 -16 67 3 23 -1 36 -9 40 -21 8 -45 73
-42 115 2 21 -3 45 -10 54 -11 13 -11 20 3 41 18 27 21 93 7 143 -8 26 -7 34
5 39 18 7 19 43 1 43 -8 0 -36 -7 -63 -15 -27 -8 -61 -15 -76 -15 -26 0 -28 3
-28 40 0 31 4 40 17 40 9 0 24 7 34 16 17 15 18 14 25 -20 6 -34 8 -36 23 -21
10 8 22 15 27 15 6 0 18 6 28 13 17 13 17 18 -10 116 l-27 102 -59 30 -58 29
-21 -45 c-20 -42 -23 -44 -35 -28 -7 10 -14 25 -14 33 -1 35 -22 90 -35 90 -8
0 -26 -21 -41 -47 -15 -27 -43 -65 -63 -86 l-36 -38 3 -82 c2 -45 4 -100 5
-122 2 -31 -2 -40 -15 -43 -14 -3 -18 3 -18 25 l-1 28 -14 -32 c-8 -18 -21
-33 -29 -33 -20 0 -26 -12 -19 -39 6 -23 22 -25 64 -7 14 6 24 -8 53 -68 29
-60 36 -86 36 -135 0 -34 -4 -61 -8 -61 -21 0 -72 33 -72 46 0 8 -16 22 -35
30 -31 13 -34 16 -25 39 7 19 6 25 -5 25 -38 0 -68 -62 -90 -185 -8 -48 -23
-99 -34 -113 -10 -15 -39 -70 -63 -122 -49 -104 -83 -145 -99 -120 -27 43 -58
221 -66 380 -5 105 -10 130 -27 153 -17 23 -20 41 -19 108 1 43 -2 79 -7 79
-5 0 -18 16 -30 36 -19 30 -22 49 -21 118 2 75 -2 92 -32 162 -19 44 -36 84
-38 91 -3 8 -9 9 -17 4z m916 -199 c3 -20 1 -22 -25 -16 -60 15 -73 47 -15 42
30 -2 38 -7 40 -26z m-1054 -97 c3 -9 0 -15 -9 -15 -8 0 -15 7 -15 15 0 8 4
15 9 15 5 0 11 -7 15 -15z m216 -120 c0 -14 -4 -25 -9 -25 -10 0 -21 36 -13
44 12 13 22 5 22 -19z m880 -40 c0 -9 -6 -12 -15 -9 -8 4 -15 10 -15 15 0 5 7
9 15 9 8 0 15 -7 15 -15z m-23 -67 c-3 -8 -6 -5 -6 6 -1 11 2 17 5 13 3 -3 4
-12 1 -19z m43 -64 c0 -8 -5 -12 -10 -9 -6 4 -8 11 -5 16 9 14 15 11 15 -7z
m-340 -158 c0 -14 -5 -28 -11 -31 -13 -9 -15 -7 -23 28 -5 23 -3 27 14 27 15
0 20 -7 20 -24z m-726 -78 c4 -32 5 -58 2 -58 -3 0 -17 18 -32 39 -26 40 -26
68 -1 99 14 18 22 -2 31 -80z m218 -30 c-7 -7 -12 -8 -12 -2 0 14 12 26 19 19
2 -3 -1 -11 -7 -17z m463 2 c3 -5 1 -10 -4 -10 -6 0 -11 5 -11 10 0 6 2 10 4
10 3 0 8 -4 11 -10z m-692 -60 c25 -35 26 -40 10 -40 -10 0 -28 -3 -40 -6 -16
-4 -25 -1 -29 10 -6 17 13 76 25 76 3 0 19 -18 34 -40z m641 -41 c-3 -5 -10
-7 -15 -3 -5 3 -7 10 -3 15 3 5 10 7 15 3 5 -3 7 -10 3 -15z m296 -45 c0 -8
-4 -14 -10 -14 -5 0 -10 9 -10 21 0 11 5 17 10 14 6 -3 10 -13 10 -21z m-762
4 c-6 -18 -28 -21 -28 -4 0 9 7 16 16 16 9 0 14 -5 12 -12z m1010 -46 c3 -9
-2 -13 -14 -10 -9 1 -19 9 -22 16 -3 9 2 13 14 10 9 -1 19 -9 22 -16z m-713
-22 c3 -5 -1 -10 -10 -10 -9 0 -13 5 -10 10 3 6 8 10 10 10 2 0 7 -4 10 -10z
m-317 -63 c37 -36 56 -77 35 -77 -10 0 -133 122 -133 132 0 17 58 -16 98 -55z
m355 -103 c9 -9 -4 -35 -14 -28 -5 3 -9 12 -9 20 0 14 12 19 23 8z m-300 -149
c9 -20 17 -40 17 -45 0 -18 -28 -11 -57 14 -27 24 -28 24 -9 45 25 28 29 27
49 -14z"/>
</g>
</svg>
