<svg xmlns="http://www.w3.org/2000/svg" width="1440" height="900"><path d="M771,516L736,585L835,581Z" fill="#415664" stroke="#415664" stroke-width="1.51"/><path d="M835,581L869,478L771,516Z" fill="#405563" stroke="#405563" stroke-width="1.51"/><path d="M736,585L733,680L835,581Z" fill="#435c6a" stroke="#435c6a" stroke-width="1.51"/><path d="M771,516L680,485L736,585Z" fill="#3e4e5b" stroke="#3e4e5b" stroke-width="1.51"/><path d="M736,585L629,613L733,680Z" fill="#425967" stroke="#425967" stroke-width="1.51"/><path d="M705,398L680,485L771,516Z" fill="#3b4653" stroke="#3b4653" stroke-width="1.51"/><path d="M680,485L629,613L736,585Z" fill="#3f515e" stroke="#3f515e" stroke-width="1.51"/><path d="M835,581L952,522L869,478Z" fill="#435a68" stroke="#435a68" stroke-width="1.51"/><path d="M968,578L952,522L835,581Z" fill="#456170" stroke="#456170" stroke-width="1.51"/><path d="M733,680L882,718L835,581Z" fill="#466574" stroke="#466574" stroke-width="1.51"/><path d="M733,680L762,785L882,718Z" fill="#486b7b" stroke="#486b7b" stroke-width="1.51"/><path d="M629,613L697,726L733,680Z" fill="#435e6d" stroke="#435e6d" stroke-width="1.51"/><path d="M882,718L968,578L835,581Z" fill="#476776" stroke="#476776" stroke-width="1.51"/><path d="M680,485L604,524L629,613Z" fill="#3d4e5b" stroke="#3d4e5b" stroke-width="1.51"/><path d="M763,361L705,398L771,516Z" fill="#3a4552" stroke="#3a4552" stroke-width="1.51"/><path d="M680,485L535,384L604,524Z" fill="#394451" stroke="#394451" stroke-width="1.51"/><path d="M869,478L763,361L771,516Z" fill="#3d4a58" stroke="#3d4a58" stroke-width="1.51"/><path d="M892,385L763,361L869,478Z" fill="#3d4c5a" stroke="#3d4c5a" stroke-width="1.51"/><path d="M955,428L892,385L869,478Z" fill="#3f5260" stroke="#3f5260" stroke-width="1.51"/><path d="M697,726L762,785L733,680Z" fill="#476776" stroke="#476776" stroke-width="1.51"/><path d="M536,711L688,762L697,726Z" fill="#456573" stroke="#456573" stroke-width="1.51"/><path d="M952,522L955,428L869,478Z" fill="#415765" stroke="#415765" stroke-width="1.51"/><path d="M1066,481L955,428L952,522Z" fill="#435d6c" stroke="#435d6c" stroke-width="1.51"/><path d="M688,762L762,785L697,726Z" fill="#476978" stroke="#476978" stroke-width="1.51"/><path d="M882,718L1014,674L968,578Z" fill="#497080" stroke="#497080" stroke-width="1.51"/><path d="M762,785L864,792L882,718Z" fill="#4a7383" stroke="#4a7383" stroke-width="1.51"/><path d="M892,385L883,340L763,361Z" fill="#3c4c59" stroke="#3c4c59" stroke-width="1.51"/><path d="M955,428L883,340L892,385Z" fill="#3f515f" stroke="#3f515f" stroke-width="1.51"/><path d="M963,826L1014,674L882,718Z" fill="#4c7b8b" stroke="#4c7b8b" stroke-width="1.51"/><path d="M968,578L1066,481L952,522Z" fill="#456372" stroke="#456372" stroke-width="1.51"/><path d="M883,340L793,313L763,361Z" fill="#3b4956" stroke="#3b4956" stroke-width="1.51"/><path d="M763,361L676,334L705,398Z" fill="#38424f" stroke="#38424f" stroke-width="1.51"/><path d="M629,613L536,711L697,726Z" fill="#435e6d" stroke="#435e6d" stroke-width="1.51"/><path d="M604,524L534,610L629,613Z" fill="#3e5260" stroke="#3e5260" stroke-width="1.51"/><path d="M488,599L534,610L604,524Z" fill="#3e515e" stroke="#3e515e" stroke-width="1.51"/><path d="M705,398L535,384L680,485Z" fill="#39424f" stroke="#39424f" stroke-width="1.51"/><path d="M793,313L676,334L763,361Z" fill="#394350" stroke="#394350" stroke-width="1.51"/><path d="M534,610L536,711L629,613Z" fill="#405967" stroke="#405967" stroke-width="1.51"/><path d="M1014,674L1076,626L968,578Z" fill="#4a7281" stroke="#4a7281" stroke-width="1.51"/><path d="M1061,839L1060,663L1014,674Z" fill="#4e8091" stroke="#4e8091" stroke-width="1.51"/><path d="M1076,626L1066,481L968,578Z" fill="#486b7a" stroke="#486b7a" stroke-width="1.51"/><path d="M955,428L940,261L883,340Z" fill="#3e5260" stroke="#3e5260" stroke-width="1.51"/><path d="M1060,663L1076,626L1014,674Z" fill="#4c7888" stroke="#4c7888" stroke-width="1.51"/><path d="M534,610L464,684L536,711Z" fill="#415b69" stroke="#415b69" stroke-width="1.51"/><path d="M449,513L488,599L604,524Z" fill="#3c4c59" stroke="#3c4c59" stroke-width="1.51"/><path d="M676,334L535,384L705,398Z" fill="#37414d" stroke="#37414d" stroke-width="1.51"/><path d="M535,384L498,442L604,524Z" fill="#38414e" stroke="#38414e" stroke-width="1.51"/><path d="M864,792L963,826L882,718Z" fill="#4d7b8b" stroke="#4d7b8b" stroke-width="1.51"/><path d="M946,885L963,826L864,792Z" fill="#4e8495" stroke="#4e8495" stroke-width="1.51"/><path d="M403,474L449,513L498,442Z" fill="#384350" stroke="#384350" stroke-width="1.51"/><path d="M498,442L449,513L604,524Z" fill="#3a4653" stroke="#3a4653" stroke-width="1.51"/><path d="M488,599L464,684L534,610Z" fill="#3f5664" stroke="#3f5664" stroke-width="1.51"/><path d="M367,692L464,684L488,599Z" fill="#405966" stroke="#405966" stroke-width="1.51"/><path d="M883,340L940,261L793,313Z" fill="#3c4d5a" stroke="#3c4d5a" stroke-width="1.51"/><path d="M793,313L763,201L676,334Z" fill="#37424e" stroke="#37424e" stroke-width="1.51"/><path d="M1059,317L940,261L955,428Z" fill="#405664" stroke="#405664" stroke-width="1.51"/><path d="M1066,481L1102,408L955,428Z" fill="#435d6c" stroke="#435d6c" stroke-width="1.51"/><path d="M1198,470L1102,408L1066,481Z" fill="#456574" stroke="#456574" stroke-width="1.51"/><path d="M464,684L504,784L536,711Z" fill="#436271" stroke="#436271" stroke-width="1.51"/><path d="M536,711L541,826L688,762Z" fill="#466878" stroke="#466878" stroke-width="1.51"/><path d="M688,762L734,927L762,785Z" fill="#497282" stroke="#497282" stroke-width="1.51"/><path d="M850,932L946,885L864,792Z" fill="#4f8596" stroke="#4f8596" stroke-width="1.51"/><path d="M504,784L541,826L536,711Z" fill="#456977" stroke="#456977" stroke-width="1.51"/><path d="M963,826L1061,839L1014,674Z" fill="#4f8495" stroke="#4f8495" stroke-width="1.51"/><path d="M850,932L864,792L762,785Z" fill="#4c7c8d" stroke="#4c7c8d" stroke-width="1.51"/><path d="M641,943L734,927L688,762Z" fill="#4b7888" stroke="#4b7888" stroke-width="1.51"/><path d="M901,183L763,201L793,313Z" fill="#394754" stroke="#394754" stroke-width="1.51"/><path d="M676,334L584,257L535,384Z" fill="#37404c" stroke="#37404c" stroke-width="1.51"/><path d="M606,222L584,257L676,334Z" fill="#363e4b" stroke="#363e4b" stroke-width="1.51"/><path d="M361,419L403,474L498,442Z" fill="#36404c" stroke="#36404c" stroke-width="1.51"/><path d="M1102,408L1059,317L955,428Z" fill="#425c6a" stroke="#425c6a" stroke-width="1.51"/><path d="M734,927L850,932L762,785Z" fill="#4d7e8f" stroke="#4d7e8f" stroke-width="1.51"/><path d="M643,194L606,222L676,334Z" fill="#353f4a" stroke="#353f4a" stroke-width="1.51"/><path d="M1187,736L1213,582L1076,626Z" fill="#4d8091" stroke="#4d8091" stroke-width="1.51"/><path d="M1213,582L1198,470L1066,481Z" fill="#486f7e" stroke="#486f7e" stroke-width="1.51"/><path d="M1044,915L1061,839L963,826Z" fill="#5290a2" stroke="#5290a2" stroke-width="1.51"/><path d="M1044,915L963,826L946,885Z" fill="#518fa0" stroke="#518fa0" stroke-width="1.51"/><path d="M332,562L367,692L488,599Z" fill="#3d5360" stroke="#3d5360" stroke-width="1.51"/><path d="M436,294L498,442L535,384Z" fill="#363f4b" stroke="#363f4b" stroke-width="1.51"/><path d="M436,294L535,384L584,257Z" fill="#353e4a" stroke="#353e4a" stroke-width="1.51"/><path d="M763,201L643,194L676,334Z" fill="#363f4b" stroke="#363f4b" stroke-width="1.51"/><path d="M940,261L901,183L793,313Z" fill="#3b4c59" stroke="#3b4c59" stroke-width="1.51"/><path d="M763,201L777,87L643,194Z" fill="#353e4a" stroke="#353e4a" stroke-width="1.51"/><path d="M993,155L901,183L940,261Z" fill="#3c505d" stroke="#3c505d" stroke-width="1.51"/><path d="M541,826L641,943L688,762Z" fill="#497282" stroke="#497282" stroke-width="1.51"/><path d="M734,927L738,982L850,932Z" fill="#4f8697" stroke="#4f8697" stroke-width="1.51"/><path d="M656,968L641,943L569,980Z" fill="#4d8193" stroke="#4d8193" stroke-width="1.51"/><path d="M656,968L738,982L734,927Z" fill="#4e8393" stroke="#4e8393" stroke-width="1.51"/><path d="M968,979L1044,915L946,885Z" fill="#5296a8" stroke="#5296a8" stroke-width="1.51"/><path d="M540,916L641,943L541,826Z" fill="#4a7888" stroke="#4a7888" stroke-width="1.51"/><path d="M641,943L656,968L734,927Z" fill="#4d8091" stroke="#4d8091" stroke-width="1.51"/><path d="M1213,582L1066,481L1076,626Z" fill="#4a7282" stroke="#4a7282" stroke-width="1.51"/><path d="M1102,408L1165,368L1059,317Z" fill="#436170" stroke="#436170" stroke-width="1.51"/><path d="M465,906L540,916L541,826Z" fill="#497685" stroke="#497685" stroke-width="1.51"/><path d="M465,906L541,826L504,784Z" fill="#47707f" stroke="#47707f" stroke-width="1.51"/><path d="M1187,736L1076,626L1060,663Z" fill="#4d7f90" stroke="#4d7f90" stroke-width="1.51"/><path d="M1059,317L1068,205L940,261Z" fill="#3f5865" stroke="#3f5865" stroke-width="1.51"/><path d="M1198,470L1165,368L1102,408Z" fill="#466675" stroke="#466675" stroke-width="1.51"/><path d="M968,979L946,885L850,932Z" fill="#5291a2" stroke="#5291a2" stroke-width="1.51"/><path d="M1061,839L1187,736L1060,663Z" fill="#508899" stroke="#508899" stroke-width="1.51"/><path d="M332,562L488,599L449,513Z" fill="#3b4d59" stroke="#3b4d59" stroke-width="1.51"/><path d="M464,684L385,820L504,784Z" fill="#446574" stroke="#446574" stroke-width="1.51"/><path d="M1205,797L1187,736L1061,839Z" fill="#5292a4" stroke="#5292a4" stroke-width="1.51"/><path d="M436,294L584,257L429,206Z" fill="#343c48" stroke="#343c48" stroke-width="1.51"/><path d="M403,274L436,294L429,206Z" fill="#333c47" stroke="#333c47" stroke-width="1.51"/><path d="M436,294L361,419L498,442Z" fill="#353e4a" stroke="#353e4a" stroke-width="1.51"/><path d="M403,474L332,562L449,513Z" fill="#394754" stroke="#394754" stroke-width="1.51"/><path d="M865,1018L968,979L850,932Z" fill="#5294a6" stroke="#5294a6" stroke-width="1.51"/><path d="M361,419L332,562L403,474Z" fill="#37434f" stroke="#37434f" stroke-width="1.51"/><path d="M738,982L865,1018L850,932Z" fill="#518d9f" stroke="#518d9f" stroke-width="1.51"/><path d="M782,1076L865,1018L738,982Z" fill="#5292a4" stroke="#5292a4" stroke-width="1.51"/><path d="M1176,256L1068,205L1059,317Z" fill="#415e6c" stroke="#415e6c" stroke-width="1.51"/><path d="M1068,205L993,155L940,261Z" fill="#3d5562" stroke="#3d5562" stroke-width="1.51"/><path d="M901,183L888,106L763,201Z" fill="#394854" stroke="#394854" stroke-width="1.51"/><path d="M540,916L569,980L641,943Z" fill="#4c7f8f" stroke="#4c7f8f" stroke-width="1.51"/><path d="M385,820L465,906L504,784Z" fill="#476f7e" stroke="#476f7e" stroke-width="1.51"/><path d="M449,968L569,980L540,916Z" fill="#4b7f8f" stroke="#4b7f8f" stroke-width="1.51"/><path d="M687,1134L782,1076L738,982Z" fill="#5190a3" stroke="#5190a3" stroke-width="1.51"/><path d="M972,103L888,106L901,183Z" fill="#3a4d59" stroke="#3a4d59" stroke-width="1.51"/><path d="M367,692L385,820L464,684Z" fill="#43616f" stroke="#43616f" stroke-width="1.51"/><path d="M286,771L385,820L367,692Z" fill="#436372" stroke="#436372" stroke-width="1.51"/><path d="M1284,697L1273,567L1213,582Z" fill="#4f8595" stroke="#4f8595" stroke-width="1.51"/><path d="M1209,883L1205,797L1061,839Z" fill="#5399ac" stroke="#5399ac" stroke-width="1.51"/><path d="M1209,883L1061,839L1044,915Z" fill="#539aac" stroke="#539aac" stroke-width="1.51"/><path d="M888,106L777,87L763,201Z" fill="#374450" stroke="#374450" stroke-width="1.51"/><path d="M429,206L584,257L537,119Z" fill="#333b47" stroke="#333b47" stroke-width="1.51"/><path d="M584,257L606,222L537,119Z" fill="#343c48" stroke="#343c48" stroke-width="1.51"/><path d="M436,294L403,274L361,419Z" fill="#343d48" stroke="#343d48" stroke-width="1.51"/><path d="M1213,582L1288,517L1198,470Z" fill="#4b7787" stroke="#4b7787" stroke-width="1.51"/><path d="M1281,289L1176,256L1165,368Z" fill="#456877" stroke="#456877" stroke-width="1.51"/><path d="M1284,697L1213,582L1187,736Z" fill="#50899b" stroke="#50899b" stroke-width="1.51"/><path d="M968,979L1065,972L1044,915Z" fill="#549db0" stroke="#549db0" stroke-width="1.51"/><path d="M995,1125L1065,972L968,979Z" fill="#55a5b8" stroke="#55a5b8" stroke-width="1.51"/><path d="M385,820L398,881L465,906Z" fill="#477282" stroke="#477282" stroke-width="1.51"/><path d="M465,906L449,968L540,916Z" fill="#4a7b8b" stroke="#4a7b8b" stroke-width="1.51"/><path d="M1165,368L1176,256L1059,317Z" fill="#436270" stroke="#436270" stroke-width="1.51"/><path d="M1100,111L972,103L993,155Z" fill="#3c5561" stroke="#3c5561" stroke-width="1.51"/><path d="M1286,409L1165,368L1198,470Z" fill="#486c7a" stroke="#486c7a" stroke-width="1.51"/><path d="M993,155L972,103L901,183Z" fill="#3b505d" stroke="#3b505d" stroke-width="1.51"/><path d="M781,19L675,37L777,87Z" fill="#343d49" stroke="#343d49" stroke-width="1.51"/><path d="M1100,111L993,155L1068,205Z" fill="#3f5865" stroke="#3f5865" stroke-width="1.51"/><path d="M332,562L286,634L367,692Z" fill="#3d5461" stroke="#3d5461" stroke-width="1.51"/><path d="M385,820L273,874L398,881Z" fill="#46707f" stroke="#46707f" stroke-width="1.51"/><path d="M204,532L286,634L332,562Z" fill="#3b4c59" stroke="#3b4c59" stroke-width="1.51"/><path d="M225,470L332,562L361,419Z" fill="#36424e" stroke="#36424e" stroke-width="1.51"/><path d="M1273,567L1288,517L1213,582Z" fill="#4c7d8e" stroke="#4c7d8e" stroke-width="1.51"/><path d="M1355,529L1288,517L1273,567Z" fill="#4d7f8f" stroke="#4d7f8f" stroke-width="1.51"/><path d="M537,119L606,222L643,194Z" fill="#333c48" stroke="#333c48" stroke-width="1.51"/><path d="M687,1134L738,982L656,968Z" fill="#4f8b9d" stroke="#4f8b9d" stroke-width="1.51"/><path d="M865,1018L995,1125L968,979Z" fill="#55a1b4" stroke="#55a1b4" stroke-width="1.51"/><path d="M635,65L537,119L643,194Z" fill="#333b47" stroke="#333b47" stroke-width="1.51"/><path d="M1257,788L1284,697L1187,736Z" fill="#5293a5" stroke="#5293a5" stroke-width="1.51"/><path d="M1205,797L1257,788L1187,736Z" fill="#5296a8" stroke="#5296a8" stroke-width="1.51"/><path d="M1209,883L1257,788L1205,797Z" fill="#549daf" stroke="#549daf" stroke-width="1.51"/><path d="M777,87L635,65L643,194Z" fill="#333c48" stroke="#333c48" stroke-width="1.51"/><path d="M675,37L635,65L777,87Z" fill="#323b47" stroke="#323b47" stroke-width="1.51"/><path d="M569,980L583,1099L656,968Z" fill="#4e8899" stroke="#4e8899" stroke-width="1.51"/><path d="M398,881L449,968L465,906Z" fill="#497988" stroke="#497988" stroke-width="1.51"/><path d="M286,634L283,720L367,692Z" fill="#3f5a67" stroke="#3f5a67" stroke-width="1.51"/><path d="M398,881L394,1004L449,968Z" fill="#4a7d8d" stroke="#4a7d8d" stroke-width="1.51"/><path d="M1288,517L1286,409L1198,470Z" fill="#497282" stroke="#497282" stroke-width="1.51"/><path d="M1065,972L1209,883L1044,915Z" fill="#54a0b2" stroke="#54a0b2" stroke-width="1.51"/><path d="M283,720L286,771L367,692Z" fill="#41606d" stroke="#41606d" stroke-width="1.51"/><path d="M540,-25L435,68L537,119Z" fill="#303843" stroke="#303843" stroke-width="1.51"/><path d="M781,19L777,87L888,106Z" fill="#36434f" stroke="#36434f" stroke-width="1.51"/><path d="M914,-26L781,19L888,106Z" fill="#364652" stroke="#364652" stroke-width="1.51"/><path d="M403,274L274,361L361,419Z" fill="#333c48" stroke="#333c48" stroke-width="1.51"/><path d="M286,634L198,609L283,720Z" fill="#3d5662" stroke="#3d5662" stroke-width="1.51"/><path d="M340,222L274,361L403,274Z" fill="#323b46" stroke="#323b46" stroke-width="1.51"/><path d="M1176,256L1211,215L1068,205Z" fill="#426270" stroke="#426270" stroke-width="1.51"/><path d="M1281,289L1211,215L1176,256Z" fill="#446877" stroke="#446877" stroke-width="1.51"/><path d="M972,103L914,-26L888,106Z" fill="#394c58" stroke="#394c58" stroke-width="1.51"/><path d="M1211,215L1100,111L1068,205Z" fill="#405e6c" stroke="#405e6c" stroke-width="1.51"/><path d="M435,68L429,206L537,119Z" fill="#313a44" stroke="#313a44" stroke-width="1.51"/><path d="M341,98L340,222L429,206Z" fill="#313944" stroke="#313944" stroke-width="1.51"/><path d="M429,206L340,222L403,274Z" fill="#323b46" stroke="#323b46" stroke-width="1.51"/><path d="M274,361L225,470L361,419Z" fill="#343d48" stroke="#343d48" stroke-width="1.51"/><path d="M283,720L185,765L286,771Z" fill="#41616f" stroke="#41616f" stroke-width="1.51"/><path d="M1286,409L1281,289L1165,368Z" fill="#476c7b" stroke="#476c7b" stroke-width="1.51"/><path d="M503,1080L583,1099L569,980Z" fill="#4f8c9d" stroke="#4f8c9d" stroke-width="1.51"/><path d="M1286,409L1336,272L1281,289Z" fill="#477080" stroke="#477080" stroke-width="1.51"/><path d="M1288,517L1376,422L1286,409Z" fill="#4a7585" stroke="#4a7585" stroke-width="1.51"/><path d="M1349,663L1355,529L1273,567Z" fill="#4f8798" stroke="#4f8798" stroke-width="1.51"/><path d="M1349,663L1273,567L1284,697Z" fill="#518c9e" stroke="#518c9e" stroke-width="1.51"/><path d="M1399,792L1349,663L1284,697Z" fill="#5399ac" stroke="#5399ac" stroke-width="1.51"/><path d="M1399,792L1284,697L1257,788Z" fill="#549caf" stroke="#549caf" stroke-width="1.51"/><path d="M782,1076L891,1147L865,1018Z" fill="#539aad" stroke="#539aad" stroke-width="1.51"/><path d="M583,1099L687,1134L656,968Z" fill="#508e9f" stroke="#508e9f" stroke-width="1.51"/><path d="M225,470L204,532L332,562Z" fill="#384652" stroke="#384652" stroke-width="1.51"/><path d="M583,1099L330,1135L687,1134Z" fill="#4f8c9d" stroke="#4f8c9d" stroke-width="1.51"/><path d="M449,968L503,1080L569,980Z" fill="#4d8696" stroke="#4d8696" stroke-width="1.51"/><path d="M394,1004L503,1080L449,968Z" fill="#4d8697" stroke="#4d8697" stroke-width="1.51"/><path d="M1209,883L1283,875L1257,788Z" fill="#55a3b5" stroke="#55a3b5" stroke-width="1.51"/><path d="M1267,976L1283,875L1209,883Z" fill="#57abbf" stroke="#57abbf" stroke-width="1.51"/><path d="M262,987L394,1004L398,881Z" fill="#497d8d" stroke="#497d8d" stroke-width="1.51"/><path d="M204,532L198,609L286,634Z" fill="#3a4d5a" stroke="#3a4d5a" stroke-width="1.51"/><path d="M286,771L273,874L385,820Z" fill="#446b79" stroke="#446b79" stroke-width="1.51"/><path d="M687,1134L891,1147L782,1076Z" fill="#5295a7" stroke="#5295a7" stroke-width="1.51"/><path d="M1065,972L1174,1034L1209,883Z" fill="#56a9bc" stroke="#56a9bc" stroke-width="1.51"/><path d="M891,1147L995,1125L865,1018Z" fill="#54a1b3" stroke="#54a1b3" stroke-width="1.51"/><path d="M185,765L273,874L286,771Z" fill="#436876" stroke="#436876" stroke-width="1.51"/><path d="M1100,111L987,3L972,103Z" fill="#3c5360" stroke="#3c5360" stroke-width="1.51"/><path d="M1097,-34L987,3L1100,111Z" fill="#3c5663" stroke="#3c5663" stroke-width="1.51"/><path d="M274,361L228,337L225,470Z" fill="#333c47" stroke="#333c47" stroke-width="1.51"/><path d="M225,470L142,403L204,532Z" fill="#353e4a" stroke="#353e4a" stroke-width="1.51"/><path d="M340,222L228,337L274,361Z" fill="#323b46" stroke="#323b46" stroke-width="1.51"/><path d="M987,3L914,-26L972,103Z" fill="#394d5a" stroke="#394d5a" stroke-width="1.51"/><path d="M665,-89L540,-25L675,37Z" fill="#303843" stroke="#303843" stroke-width="1.51"/><path d="M1079,1143L1174,1034L1065,972Z" fill="#57b1c4" stroke="#57b1c4" stroke-width="1.51"/><path d="M1355,529L1376,422L1288,517Z" fill="#4d7b8c" stroke="#4d7b8c" stroke-width="1.51"/><path d="M1501,516L1376,422L1355,529Z" fill="#4e8292" stroke="#4e8292" stroke-width="1.51"/><path d="M540,-25L537,119L635,65Z" fill="#313944" stroke="#313944" stroke-width="1.51"/><path d="M225,226L196,298L228,337Z" fill="#313944" stroke="#313944" stroke-width="1.51"/><path d="M540,-25L635,65L675,37Z" fill="#313944" stroke="#313944" stroke-width="1.51"/><path d="M1301,193L1211,215L1281,289Z" fill="#456b7a" stroke="#456b7a" stroke-width="1.51"/><path d="M1264,89L1174,96L1211,215Z" fill="#426573" stroke="#426573" stroke-width="1.51"/><path d="M1211,215L1174,96L1100,111Z" fill="#41606e" stroke="#41606e" stroke-width="1.51"/><path d="M1376,422L1336,272L1286,409Z" fill="#497384" stroke="#497384" stroke-width="1.51"/><path d="M155,712L185,765L283,720Z" fill="#405e6c" stroke="#405e6c" stroke-width="1.51"/><path d="M155,712L283,720L198,609Z" fill="#3e5865" stroke="#3e5865" stroke-width="1.51"/><path d="M1496,665L1416,622L1349,663Z" fill="#5397aa" stroke="#5397aa" stroke-width="1.51"/><path d="M1174,1034L1267,976L1209,883Z" fill="#58b0c3" stroke="#58b0c3" stroke-width="1.51"/><path d="M1349,663L1416,622L1355,529Z" fill="#518d9f" stroke="#518d9f" stroke-width="1.51"/><path d="M1399,792L1257,788L1283,875Z" fill="#56a4b7" stroke="#56a4b7" stroke-width="1.51"/><path d="M1336,272L1301,193L1281,289Z" fill="#466f7e" stroke="#466f7e" stroke-width="1.51"/><path d="M665,-89L675,37L781,19Z" fill="#323a45" stroke="#323a45" stroke-width="1.51"/><path d="M356,37L341,98L435,68Z" fill="#2f3741" stroke="#2f3741" stroke-width="1.51"/><path d="M435,68L341,98L429,206Z" fill="#303843" stroke="#303843" stroke-width="1.51"/><path d="M77,661L198,609L32,526Z" fill="#3a4d59" stroke="#3a4d59" stroke-width="1.51"/><path d="M77,661L155,712L198,609Z" fill="#3c5462" stroke="#3c5462" stroke-width="1.51"/><path d="M228,337L142,403L225,470Z" fill="#333b47" stroke="#333b47" stroke-width="1.51"/><path d="M225,226L228,337L340,222Z" fill="#313944" stroke="#313944" stroke-width="1.51"/><path d="M1174,1034L1310,1116L1267,976Z" fill="#59bdd1" stroke="#59bdd1" stroke-width="1.51"/><path d="M995,1125L1079,1143L1065,972Z" fill="#57acbf" stroke="#57acbf" stroke-width="1.51"/><path d="M891,1147L1079,1143L995,1125Z" fill="#56a7ba" stroke="#56a7ba" stroke-width="1.51"/><path d="M1392,897L1399,792L1283,875Z" fill="#57adc1" stroke="#57adc1" stroke-width="1.51"/><path d="M781,-122L665,-89L781,19Z" fill="#313b46" stroke="#313b46" stroke-width="1.51"/><path d="M987,3L949,-67L914,-26Z" fill="#384c58" stroke="#384c58" stroke-width="1.51"/><path d="M1097,-34L949,-67L987,3Z" fill="#3a505d" stroke="#3a505d" stroke-width="1.51"/><path d="M341,98L225,226L340,222Z" fill="#313843" stroke="#313843" stroke-width="1.51"/><path d="M101,341L142,403L196,298Z" fill="#313a45" stroke="#313a45" stroke-width="1.51"/><path d="M196,298L142,403L228,337Z" fill="#323a45" stroke="#323a45" stroke-width="1.51"/><path d="M781,-122L781,19L857,-121Z" fill="#33404b" stroke="#33404b" stroke-width="1.51"/><path d="M273,874L262,987L398,881Z" fill="#477786" stroke="#477786" stroke-width="1.51"/><path d="M394,1004L330,1135L503,1080Z" fill="#4d8a9b" stroke="#4d8a9b" stroke-width="1.51"/><path d="M151,882L262,987L273,874Z" fill="#467584" stroke="#467584" stroke-width="1.51"/><path d="M151,882L273,874L185,765Z" fill="#446c7a" stroke="#446c7a" stroke-width="1.51"/><path d="M1365,174L1264,89L1301,193Z" fill="#446d7c" stroke="#446d7c" stroke-width="1.51"/><path d="M1301,193L1264,89L1211,215Z" fill="#446978" stroke="#446978" stroke-width="1.51"/><path d="M1174,96L1097,-34L1100,111Z" fill="#3e5b69" stroke="#3e5b69" stroke-width="1.51"/><path d="M1199,-2L1097,-34L1174,96Z" fill="#3e5d6a" stroke="#3e5d6a" stroke-width="1.51"/><path d="M1079,1143L1159,1133L1174,1034Z" fill="#58b5c8" stroke="#58b5c8" stroke-width="1.51"/><path d="M1267,976L1392,897L1283,875Z" fill="#58b1c5" stroke="#58b1c5" stroke-width="1.51"/><path d="M341,98L236,81L225,226Z" fill="#2f3741" stroke="#2f3741" stroke-width="1.51"/><path d="M435,-32L356,37L435,68Z" fill="#2f3641" stroke="#2f3641" stroke-width="1.51"/><path d="M435,-32L435,68L540,-25Z" fill="#2f3742" stroke="#2f3742" stroke-width="1.51"/><path d="M857,-121L914,-26L949,-67Z" fill="#364753" stroke="#364753" stroke-width="1.51"/><path d="M857,-121L781,19L914,-26Z" fill="#35434f" stroke="#35434f" stroke-width="1.51"/><path d="M1416,622L1475,592L1355,529Z" fill="#518d9f" stroke="#518d9f" stroke-width="1.51"/><path d="M1454,170L1365,174L1336,272Z" fill="#477584" stroke="#477584" stroke-width="1.51"/><path d="M1336,272L1365,174L1301,193Z" fill="#47717f" stroke="#47717f" stroke-width="1.51"/><path d="M1496,665L1475,592L1416,622Z" fill="#5398aa" stroke="#5398aa" stroke-width="1.51"/><path d="M1103,-92L857,-121L949,-67Z" fill="#384b58" stroke="#384b58" stroke-width="1.51"/><path d="M1399,792L1496,665L1349,663Z" fill="#549eb1" stroke="#549eb1" stroke-width="1.51"/><path d="M1448,921L1392,897L1448,972Z" fill="#59bed3" stroke="#59bed3" stroke-width="1.51"/><path d="M538,-116L540,-25L665,-89Z" fill="#2f3741" stroke="#2f3741" stroke-width="1.51"/><path d="M538,-116L435,-32L540,-25Z" fill="#2e3641" stroke="#2e3641" stroke-width="1.51"/><path d="M1450,340L1336,272L1376,422Z" fill="#4a7888" stroke="#4a7888" stroke-width="1.51"/><path d="M1485,361L1450,340L1376,422Z" fill="#4b7d8d" stroke="#4b7d8d" stroke-width="1.51"/><path d="M1097,-34L1103,-92L949,-67Z" fill="#3a535f" stroke="#3a535f" stroke-width="1.51"/><path d="M1264,89L1199,-2L1174,96Z" fill="#406370" stroke="#406370" stroke-width="1.51"/><path d="M1209,-70L1199,-2L1256,-47Z" fill="#3f626f" stroke="#3f626f" stroke-width="1.51"/><path d="M31,802L185,765L155,712Z" fill="#40606e" stroke="#40606e" stroke-width="1.51"/><path d="M31,802L151,882L185,765Z" fill="#426775" stroke="#426775" stroke-width="1.51"/><path d="M32,526L198,609L204,532Z" fill="#384854" stroke="#384854" stroke-width="1.51"/><path d="M1475,592L1501,516L1355,529Z" fill="#508c9d" stroke="#508c9d" stroke-width="1.51"/><path d="M1566,570L1501,516L1475,592Z" fill="#5294a6" stroke="#5294a6" stroke-width="1.51"/><path d="M1516,770L1496,665L1399,792Z" fill="#56a9bc" stroke="#56a9bc" stroke-width="1.51"/><path d="M142,403L32,526L204,532Z" fill="#34404b" stroke="#34404b" stroke-width="1.51"/><path d="M139,191L101,341L196,298Z" fill="#303843" stroke="#303843" stroke-width="1.51"/><path d="M139,191L196,298L225,226Z" fill="#2f3842" stroke="#2f3842" stroke-width="1.51"/><path d="M781,-122L538,-116L665,-89Z" fill="#303742" stroke="#303742" stroke-width="1.51"/><path d="M234,1145L330,1135L262,987Z" fill="#4c8898" stroke="#4c8898" stroke-width="1.51"/><path d="M262,987L330,1135L394,1004Z" fill="#4c8798" stroke="#4c8798" stroke-width="1.51"/><path d="M503,1080L330,1135L583,1099Z" fill="#4e8b9c" stroke="#4e8b9c" stroke-width="1.51"/><path d="M687,1134L234,1145L891,1147Z" fill="#4f8d9f" stroke="#4f8d9f" stroke-width="1.51"/><path d="M1501,516L1485,361L1376,422Z" fill="#4d8091" stroke="#4d8091" stroke-width="1.51"/><path d="M1450,340L1454,170L1336,272Z" fill="#497888" stroke="#497888" stroke-width="1.51"/><path d="M1209,-70L1103,-92L1097,-34Z" fill="#3d5a66" stroke="#3d5a66" stroke-width="1.51"/><path d="M380,-107L356,37L435,-32Z" fill="#2d353f" stroke="#2d353f" stroke-width="1.51"/><path d="M260,-35L236,81L356,37Z" fill="#2d353f" stroke="#2d353f" stroke-width="1.51"/><path d="M356,37L236,81L341,98Z" fill="#2e3640" stroke="#2e3640" stroke-width="1.51"/><path d="M236,81L199,111L225,226Z" fill="#2e3640" stroke="#2e3640" stroke-width="1.51"/><path d="M199,111L139,191L225,226Z" fill="#2f3641" stroke="#2f3641" stroke-width="1.51"/><path d="M1392,897L1448,921L1399,792Z" fill="#58b4c8" stroke="#58b4c8" stroke-width="1.51"/><path d="M1404,1006L1392,897L1267,976Z" fill="#59bbd0" stroke="#59bbd0" stroke-width="1.51"/><path d="M3,419L32,526L142,403Z" fill="#323b46" stroke="#323b46" stroke-width="1.51"/><path d="M33,373L142,403L101,341Z" fill="#313944" stroke="#313944" stroke-width="1.51"/><path d="M1496,665L1566,570L1475,592Z" fill="#539aad" stroke="#539aad" stroke-width="1.51"/><path d="M1448,921L1516,770L1399,792Z" fill="#58b2c6" stroke="#58b2c6" stroke-width="1.51"/><path d="M77,661L31,802L155,712Z" fill="#3e5b69" stroke="#3e5b69" stroke-width="1.51"/><path d="M32,526L28,628L77,661Z" fill="#394c59" stroke="#394c59" stroke-width="1.51"/><path d="M1372,1102L1404,1006L1267,976Z" fill="#5ac4d9" stroke="#5ac4d9" stroke-width="1.51"/><path d="M1159,1133L1310,1116L1174,1034Z" fill="#59bbd0" stroke="#59bbd0" stroke-width="1.51"/><path d="M1450,1142L1310,1116L1159,1133Z" fill="#5ac4d9" stroke="#5ac4d9" stroke-width="1.51"/><path d="M1199,-2L1209,-70L1097,-34Z" fill="#3e5d6a" stroke="#3e5d6a" stroke-width="1.51"/><path d="M1256,-47L1199,-2L1264,89Z" fill="#406471" stroke="#406471" stroke-width="1.51"/><path d="M1256,-47L1264,89L1375,57Z" fill="#426977" stroke="#426977" stroke-width="1.51"/><path d="M151,882L184,1045L262,987Z" fill="#487c8b" stroke="#487c8b" stroke-width="1.51"/><path d="M49,1032L184,1045L151,882Z" fill="#477d8c" stroke="#477d8c" stroke-width="1.51"/><path d="M1375,57L1264,89L1365,174Z" fill="#446e7d" stroke="#446e7d" stroke-width="1.51"/><path d="M32,526L-31,596L28,628Z" fill="#374955" stroke="#374955" stroke-width="1.51"/><path d="M-37,272L33,373L101,341Z" fill="#303842" stroke="#303842" stroke-width="1.51"/><path d="M1404,1006L1448,972L1392,897Z" fill="#5ac0d5" stroke="#5ac0d5" stroke-width="1.51"/><path d="M1448,921L1560,828L1516,770Z" fill="#59b9cd" stroke="#59b9cd" stroke-width="1.51"/><path d="M1541,1008L1448,972L1404,1006Z" fill="#5bcae0" stroke="#5bcae0" stroke-width="1.51"/><path d="M1573,319L1454,170L1450,340Z" fill="#4b808f" stroke="#4b808f" stroke-width="1.51"/><path d="M1454,170L1375,57L1365,174Z" fill="#467483" stroke="#467483" stroke-width="1.51"/><path d="M538,-116L455,-141L435,-32Z" fill="#2d353f" stroke="#2d353f" stroke-width="1.51"/><path d="M155,-35L85,112L199,111Z" fill="#2d343e" stroke="#2d343e" stroke-width="1.51"/><path d="M781,-122L455,-141L538,-116Z" fill="#2e3640" stroke="#2e3640" stroke-width="1.51"/><path d="M857,-121L455,-141L781,-122Z" fill="#2f3742" stroke="#2f3742" stroke-width="1.51"/><path d="M1560,672L1566,570L1496,665Z" fill="#54a0b3" stroke="#54a0b3" stroke-width="1.51"/><path d="M1501,516L1598,377L1485,361Z" fill="#4e8696" stroke="#4e8696" stroke-width="1.51"/><path d="M1485,361L1573,319L1450,340Z" fill="#4c8292" stroke="#4c8292" stroke-width="1.51"/><path d="M1516,770L1560,672L1496,665Z" fill="#56a8bb" stroke="#56a8bb" stroke-width="1.51"/><path d="M1675,774L1560,672L1516,770Z" fill="#57b2c6" stroke="#57b2c6" stroke-width="1.51"/><path d="M455,-141L380,-107L435,-32Z" fill="#2d343e" stroke="#2d343e" stroke-width="1.51"/><path d="M28,628L31,802L77,661Z" fill="#3d5764" stroke="#3d5764" stroke-width="1.51"/><path d="M1310,1116L1372,1102L1267,976Z" fill="#5ac5da" stroke="#5ac5da" stroke-width="1.51"/><path d="M33,373L3,419L142,403Z" fill="#313a44" stroke="#313a44" stroke-width="1.51"/><path d="M28,628L-79,662L31,802Z" fill="#3c5764" stroke="#3c5764" stroke-width="1.51"/><path d="M-37,272L3,419L33,373Z" fill="#303842" stroke="#303842" stroke-width="1.51"/><path d="M380,-107L260,-35L356,37Z" fill="#2d343e" stroke="#2d343e" stroke-width="1.51"/><path d="M85,112L42,196L139,191Z" fill="#2d353f" stroke="#2d353f" stroke-width="1.51"/><path d="M139,191L42,196L101,341Z" fill="#2f3741" stroke="#2f3741" stroke-width="1.51"/><path d="M330,1135L234,1145L687,1134Z" fill="#4d8a9b" stroke="#4d8a9b" stroke-width="1.51"/><path d="M184,1045L234,1145L262,987Z" fill="#4a8797" stroke="#4a8797" stroke-width="1.51"/><path d="M183,1111L234,1145L184,1045Z" fill="#4a8697" stroke="#4a8697" stroke-width="1.51"/><path d="M31,802L48,878L151,882Z" fill="#426b79" stroke="#426b79" stroke-width="1.51"/><path d="M3,419L-25,520L32,526Z" fill="#333e4a" stroke="#333e4a" stroke-width="1.51"/><path d="M76,1101L183,1111L184,1045Z" fill="#4a8696" stroke="#4a8696" stroke-width="1.51"/><path d="M31,802L-54,938L48,878Z" fill="#426c7a" stroke="#426c7a" stroke-width="1.51"/><path d="M-25,520L-31,596L32,526Z" fill="#364551" stroke="#364551" stroke-width="1.51"/><path d="M1578,940L1448,921L1448,972Z" fill="#5bc5db" stroke="#5bc5db" stroke-width="1.51"/><path d="M1578,940L1560,828L1448,921Z" fill="#5ac2d7" stroke="#5ac2d7" stroke-width="1.51"/><path d="M1640,477L1607,495L1706,636Z" fill="#549aad" stroke="#549aad" stroke-width="1.51"/><path d="M1607,495L1566,570L1706,636Z" fill="#549fb1" stroke="#549fb1" stroke-width="1.51"/><path d="M1566,570L1607,495L1501,516Z" fill="#5293a5" stroke="#5293a5" stroke-width="1.51"/><path d="M1598,377L1573,319L1485,361Z" fill="#4e8697" stroke="#4e8697" stroke-width="1.51"/><path d="M1483,57L1390,-33L1375,57Z" fill="#457382" stroke="#457382" stroke-width="1.51"/><path d="M85,112L139,191L199,111Z" fill="#2d353f" stroke="#2d353f" stroke-width="1.51"/><path d="M-147,583L-31,596L-25,520Z" fill="#364652" stroke="#364652" stroke-width="1.51"/><path d="M155,-35L199,111L236,81Z" fill="#2d343e" stroke="#2d343e" stroke-width="1.51"/><path d="M1607,495L1598,377L1501,516Z" fill="#508c9d" stroke="#508c9d" stroke-width="1.51"/><path d="M1256,-47L1249,-135L1209,-70Z" fill="#3e616f" stroke="#3e616f" stroke-width="1.51"/><path d="M1209,-70L1249,-135L1103,-92Z" fill="#3d5d6a" stroke="#3d5d6a" stroke-width="1.51"/><path d="M1103,-92L1249,-135L857,-121Z" fill="#3a5360" stroke="#3a5360" stroke-width="1.51"/><path d="M857,-121L1249,-135L455,-141Z" fill="#34424d" stroke="#34424d" stroke-width="1.51"/><path d="M1416,-103L1249,-135L1256,-47Z" fill="#406775" stroke="#406775" stroke-width="1.51"/><path d="M1390,-33L1256,-47L1375,57Z" fill="#426c7a" stroke="#426c7a" stroke-width="1.51"/><path d="M1483,57L1375,57L1454,170Z" fill="#467685" stroke="#467685" stroke-width="1.51"/><path d="M260,-35L155,-35L236,81Z" fill="#2c333d" stroke="#2c333d" stroke-width="1.51"/><path d="M380,-107L271,-123L260,-35Z" fill="#2b333c" stroke="#2b333c" stroke-width="1.51"/><path d="M455,-141L271,-123L380,-107Z" fill="#2c333c" stroke="#2c333c" stroke-width="1.51"/><path d="M1706,636L1566,570L1560,672Z" fill="#56a5b8" stroke="#56a5b8" stroke-width="1.51"/><path d="M1607,495L1640,477L1598,377Z" fill="#518ea0" stroke="#518ea0" stroke-width="1.51"/><path d="M1603,237L1573,319L1664,262Z" fill="#4e899a" stroke="#4e899a" stroke-width="1.51"/><path d="M1603,237L1454,170L1573,319Z" fill="#4c8393" stroke="#4c8393" stroke-width="1.51"/><path d="M1601,113L1483,57L1454,170Z" fill="#487d8d" stroke="#487d8d" stroke-width="1.51"/><path d="M-31,596L-79,662L28,628Z" fill="#394e5a" stroke="#394e5a" stroke-width="1.51"/><path d="M48,878L49,1032L151,882Z" fill="#457584" stroke="#457584" stroke-width="1.51"/><path d="M-147,583L-79,662L-31,596Z" fill="#384c57" stroke="#384c57" stroke-width="1.51"/><path d="M-147,583L-25,520L-170,519Z" fill="#34434e" stroke="#34434e" stroke-width="1.51"/><path d="M-13,1019L49,1032L48,878Z" fill="#467a89" stroke="#467a89" stroke-width="1.51"/><path d="M183,1111L76,1101L234,1145Z" fill="#4a8696" stroke="#4a8696" stroke-width="1.51"/><path d="M181,-137L155,-35L260,-35Z" fill="#2b313b" stroke="#2b313b" stroke-width="1.51"/><path d="M-57,200L-37,272L42,196Z" fill="#2d353e" stroke="#2d353e" stroke-width="1.51"/><path d="M-57,200L42,196L-52,105Z" fill="#2c333d" stroke="#2c333d" stroke-width="1.51"/><path d="M42,196L-37,272L101,341Z" fill="#2f3641" stroke="#2f3641" stroke-width="1.51"/><path d="M1675,774L1685,702L1560,672Z" fill="#58b3c7" stroke="#58b3c7" stroke-width="1.51"/><path d="M1450,1142L1541,1008L1404,1006Z" fill="#5cd2e8" stroke="#5cd2e8" stroke-width="1.51"/><path d="M1541,1008L1578,940L1448,972Z" fill="#5bcce2" stroke="#5bcce2" stroke-width="1.51"/><path d="M891,1147L1450,1142L1079,1143Z" fill="#58b5c9" stroke="#58b5c9" stroke-width="1.51"/><path d="M1079,1143L1450,1142L1159,1133Z" fill="#59bdd1" stroke="#59bdd1" stroke-width="1.51"/><path d="M1310,1116L1450,1142L1372,1102Z" fill="#5bcbe0" stroke="#5bcbe0" stroke-width="1.51"/><path d="M1372,1102L1450,1142L1404,1006Z" fill="#5bcde3" stroke="#5bcde3" stroke-width="1.51"/><path d="M1664,262L1573,319L1598,377Z" fill="#4e8a9b" stroke="#4e8a9b" stroke-width="1.51"/><path d="M49,1032L76,1101L184,1045Z" fill="#498595" stroke="#498595" stroke-width="1.51"/><path d="M-79,662L-79,777L31,802Z" fill="#3d5c69" stroke="#3d5c69" stroke-width="1.51"/><path d="M49,1032L3,1062L76,1101Z" fill="#488494" stroke="#488494" stroke-width="1.51"/><path d="M1601,113L1511,19L1483,57Z" fill="#477e8d" stroke="#477e8d" stroke-width="1.51"/><path d="M1483,57L1511,19L1390,-33Z" fill="#467785" stroke="#467785" stroke-width="1.51"/><path d="M1390,-33L1416,-103L1256,-47Z" fill="#416c7a" stroke="#416c7a" stroke-width="1.51"/><path d="M1675,774L1516,770L1560,828Z" fill="#58b9cd" stroke="#58b9cd" stroke-width="1.51"/><path d="M1710,412L1664,262L1598,377Z" fill="#4f8d9e" stroke="#4f8d9e" stroke-width="1.51"/><path d="M1699,915L1560,828L1578,940Z" fill="#5bcadf" stroke="#5bcadf" stroke-width="1.51"/><path d="M1699,915L1675,774L1560,828Z" fill="#5ac4d9" stroke="#5ac4d9" stroke-width="1.51"/><path d="M-54,938L-13,1019L48,878Z" fill="#447584" stroke="#447584" stroke-width="1.51"/><path d="M-79,777L-54,938L31,802Z" fill="#406875" stroke="#406875" stroke-width="1.51"/><path d="M-52,105L42,196L85,112Z" fill="#2c343d" stroke="#2c343d" stroke-width="1.51"/><path d="M-147,583L-119,730L-79,662Z" fill="#39515c" stroke="#39515c" stroke-width="1.51"/><path d="M-79,777L-143,877L-54,938Z" fill="#416a78" stroke="#416a78" stroke-width="1.51"/><path d="M-79,662L-119,730L-79,777Z" fill="#3c5965" stroke="#3c5965" stroke-width="1.51"/><path d="M-25,520L3,419L-141,380Z" fill="#313943" stroke="#313943" stroke-width="1.51"/><path d="M1507,-100L1416,-103L1390,-33Z" fill="#437281" stroke="#437281" stroke-width="1.51"/><path d="M1699,915L1706,636L1685,702Z" fill="#59b8cc" stroke="#59b8cc" stroke-width="1.51"/><path d="M1685,702L1706,636L1560,672Z" fill="#57adc0" stroke="#57adc0" stroke-width="1.51"/><path d="M-151,1099L3,1062L-13,1019Z" fill="#478392" stroke="#478392" stroke-width="1.51"/><path d="M-13,1019L3,1062L49,1032Z" fill="#488191" stroke="#488191" stroke-width="1.51"/><path d="M86,-62L30,30L155,-35Z" fill="#2a313a" stroke="#2a313a" stroke-width="1.51"/><path d="M155,-35L30,30L85,112Z" fill="#2b333c" stroke="#2b333c" stroke-width="1.51"/><path d="M271,-123L181,-137L260,-35Z" fill="#2b313b" stroke="#2b313b" stroke-width="1.51"/><path d="M455,-141L181,-137L271,-123Z" fill="#2b323b" stroke="#2b323b" stroke-width="1.51"/><path d="M1710,412L1598,377L1640,477Z" fill="#508fa0" stroke="#508fa0" stroke-width="1.51"/><path d="M1603,237L1601,113L1454,170Z" fill="#4a8292" stroke="#4a8292" stroke-width="1.51"/><path d="M-141,380L3,419L-37,272Z" fill="#2f3741" stroke="#2f3741" stroke-width="1.51"/><path d="M1675,216L1601,113L1603,237Z" fill="#4c8999" stroke="#4c8999" stroke-width="1.51"/><path d="M1511,19L1507,-100L1390,-33Z" fill="#447685" stroke="#447685" stroke-width="1.51"/><path d="M1706,636L1710,412L1640,477Z" fill="#5297a9" stroke="#5297a9" stroke-width="1.51"/><path d="M181,-137L86,-62L155,-35Z" fill="#2a313a" stroke="#2a313a" stroke-width="1.51"/><path d="M-130,299L-141,380L-37,272Z" fill="#2e3540" stroke="#2e3540" stroke-width="1.51"/><path d="M-142,159L-130,299L-57,200Z" fill="#2c333d" stroke="#2c333d" stroke-width="1.51"/><path d="M-57,200L-130,299L-37,272Z" fill="#2d353f" stroke="#2d353f" stroke-width="1.51"/><path d="M30,30L-52,105L85,112Z" fill="#2b333c" stroke="#2b333c" stroke-width="1.51"/><path d="M-37,20L-52,105L30,30Z" fill="#2a313a" stroke="#2a313a" stroke-width="1.51"/><path d="M-172,114L-170,519L-141,380Z" fill="#2e353f" stroke="#2e353f" stroke-width="1.51"/><path d="M-141,380L-170,519L-25,520Z" fill="#313b46" stroke="#313b46" stroke-width="1.51"/><path d="M-147,583L-162,811L-119,730Z" fill="#3b5662" stroke="#3b5662" stroke-width="1.51"/><path d="M1664,262L1675,216L1603,237Z" fill="#4d8a9b" stroke="#4d8a9b" stroke-width="1.51"/><path d="M1710,412L1675,216L1664,262Z" fill="#4e8b9c" stroke="#4e8b9c" stroke-width="1.51"/><path d="M1670,1024L1699,915L1578,940Z" fill="#5cd4eb" stroke="#5cd4eb" stroke-width="1.51"/><path d="M1450,1142L1566,1134L1541,1008Z" fill="#5cd8ee" stroke="#5cd8ee" stroke-width="1.51"/><path d="M-170,519L-162,811L-147,583Z" fill="#384e59" stroke="#384e59" stroke-width="1.51"/><path d="M-119,730L-162,811L-79,777Z" fill="#3e5e6b" stroke="#3e5e6b" stroke-width="1.51"/><path d="M-54,938L-139,993L-13,1019Z" fill="#457988" stroke="#457988" stroke-width="1.51"/><path d="M1670,1024L1578,940L1541,1008Z" fill="#5cd6ec" stroke="#5cd6ec" stroke-width="1.51"/><path d="M1675,774L1699,915L1685,702Z" fill="#5abed2" stroke="#5abed2" stroke-width="1.51"/><path d="M-162,811L-143,877L-79,777Z" fill="#3f6571" stroke="#3f6571" stroke-width="1.51"/><path d="M1609,-41L1511,19L1601,113Z" fill="#488090" stroke="#488090" stroke-width="1.51"/><path d="M1609,-41L1507,-100L1511,19Z" fill="#467c8b" stroke="#467c8b" stroke-width="1.51"/><path d="M1416,-103L1507,-100L1249,-135Z" fill="#416e7b" stroke="#416e7b" stroke-width="1.51"/><path d="M-45,-90L-37,20L30,30Z" fill="#2a3039" stroke="#2a3039" stroke-width="1.51"/><path d="M-52,105L-142,159L-57,200Z" fill="#2b333c" stroke="#2b333c" stroke-width="1.51"/><path d="M-45,-90L30,30L86,-62Z" fill="#2a3039" stroke="#2a3039" stroke-width="1.51"/><path d="M1566,1134L1670,1024L1541,1008Z" fill="#5ddef5" stroke="#5ddef5" stroke-width="1.51"/><path d="M1675,216L1669,101L1601,113Z" fill="#4b8898" stroke="#4b8898" stroke-width="1.51"/><path d="M1697,-27L1669,101L1675,216Z" fill="#4b8697" stroke="#4b8697" stroke-width="1.51"/><path d="M-172,114L-142,159L-52,105Z" fill="#2a313b" stroke="#2a313b" stroke-width="1.51"/><path d="M-130,299L-172,114L-141,380Z" fill="#2c343e" stroke="#2c343e" stroke-width="1.51"/><path d="M-143,877L-139,993L-54,938Z" fill="#437381" stroke="#437381" stroke-width="1.51"/><path d="M3,1062L-151,1099L76,1101Z" fill="#488392" stroke="#488392" stroke-width="1.51"/><path d="M-162,811L-139,993L-143,877Z" fill="#416d7a" stroke="#416d7a" stroke-width="1.51"/><path d="M1669,101L1609,-41L1601,113Z" fill="#498695" stroke="#498695" stroke-width="1.51"/><path d="M1663,-76L1597,-84L1609,-41Z" fill="#478291" stroke="#478291" stroke-width="1.51"/><path d="M1609,-41L1597,-84L1507,-100Z" fill="#467d8d" stroke="#467d8d" stroke-width="1.51"/><path d="M-37,20L-172,114L-52,105Z" fill="#2a313a" stroke="#2a313a" stroke-width="1.51"/><path d="M181,-137L-45,-90L86,-62Z" fill="#292f38" stroke="#292f38" stroke-width="1.51"/><path d="M-119,-39L-172,114L-37,20Z" fill="#293038" stroke="#293038" stroke-width="1.51"/><path d="M-142,159L-172,114L-130,299Z" fill="#2b323c" stroke="#2b323c" stroke-width="1.51"/><path d="M1566,1134L1675,1139L1670,1024Z" fill="#5de2f9" stroke="#5de2f9" stroke-width="1.51"/><path d="M1670,1024L1675,1139L1699,915Z" fill="#5ddef4" stroke="#5ddef4" stroke-width="1.51"/><path d="M1450,1142L1675,1139L1566,1134Z" fill="#5ddcf2" stroke="#5ddcf2" stroke-width="1.51"/><path d="M-139,993L-151,1099L-13,1019Z" fill="#467f8f" stroke="#467f8f" stroke-width="1.51"/><path d="M76,1101L-151,1099L234,1145Z" fill="#488494" stroke="#488494" stroke-width="1.51"/><path d="M-162,811L-151,1099L-139,993Z" fill="#437684" stroke="#437684" stroke-width="1.51"/><path d="M-103,-64L-119,-39L-37,20Z" fill="#282f37" stroke="#282f37" stroke-width="1.51"/><path d="M1697,-27L1663,-76L1609,-41Z" fill="#488392" stroke="#488392" stroke-width="1.51"/><path d="M1597,-84L1663,-76L1507,-100Z" fill="#457f8e" stroke="#457f8e" stroke-width="1.51"/><path d="M1697,-27L1609,-41L1669,101Z" fill="#498594" stroke="#498594" stroke-width="1.51"/><path d="M1710,412L1697,-27L1675,216Z" fill="#4c8999" stroke="#4c8999" stroke-width="1.51"/><path d="M-45,-90L-103,-64L-37,20Z" fill="#282e37" stroke="#282e37" stroke-width="1.51"/></svg>